<mxfile host="app.diagrams.net" agent="Mozilla/5.0 (X11; Ubuntu; Linux x86_64; rv:129.0) Gecko/20100101 Firefox/129.0" version="26.0.13">
  <diagram name="Page-1" id="poB6cSelx1MDBuXdxnBq">
    <mxGraphModel dx="3128" dy="1120" grid="1" gridSize="10" guides="1" tooltips="1" connect="1" arrows="1" fold="1" page="1" pageScale="1" pageWidth="850" pageHeight="1100" math="0" shadow="0">
      <root>
        <mxCell id="0" />
        <mxCell id="1" parent="0" />
        <mxCell id="iF6_hDNO-F1vBji0Vx_p-3" style="edgeStyle=orthogonalEdgeStyle;rounded=0;orthogonalLoop=1;jettySize=auto;html=1;exitX=0.5;exitY=1;exitDx=0;exitDy=0;entryX=0.5;entryY=1;entryDx=0;entryDy=0;startArrow=classic;startFill=1;" edge="1" parent="1" source="iF6_hDNO-F1vBji0Vx_p-1" target="iF6_hDNO-F1vBji0Vx_p-2">
          <mxGeometry relative="1" as="geometry" />
        </mxCell>
        <mxCell id="iF6_hDNO-F1vBji0Vx_p-5" style="edgeStyle=orthogonalEdgeStyle;rounded=0;orthogonalLoop=1;jettySize=auto;html=1;entryX=0.5;entryY=1;entryDx=0;entryDy=0;startArrow=classic;startFill=1;exitX=0.5;exitY=0;exitDx=0;exitDy=0;" edge="1" parent="1" source="iF6_hDNO-F1vBji0Vx_p-6" target="iF6_hDNO-F1vBji0Vx_p-4">
          <mxGeometry relative="1" as="geometry">
            <mxPoint x="230" y="170" as="sourcePoint" />
          </mxGeometry>
        </mxCell>
        <mxCell id="iF6_hDNO-F1vBji0Vx_p-7" style="edgeStyle=orthogonalEdgeStyle;rounded=0;orthogonalLoop=1;jettySize=auto;html=1;exitX=0.75;exitY=0;exitDx=0;exitDy=0;entryX=0.5;entryY=1;entryDx=0;entryDy=0;startArrow=classic;startFill=1;" edge="1" parent="1" source="iF6_hDNO-F1vBji0Vx_p-1" target="iF6_hDNO-F1vBji0Vx_p-6">
          <mxGeometry relative="1" as="geometry" />
        </mxCell>
        <mxCell id="iF6_hDNO-F1vBji0Vx_p-27" style="edgeStyle=orthogonalEdgeStyle;rounded=0;orthogonalLoop=1;jettySize=auto;html=1;exitX=0.25;exitY=1;exitDx=0;exitDy=0;entryX=0.5;entryY=0;entryDx=0;entryDy=0;startArrow=classic;startFill=1;" edge="1" parent="1" source="iF6_hDNO-F1vBji0Vx_p-1" target="iF6_hDNO-F1vBji0Vx_p-25">
          <mxGeometry relative="1" as="geometry" />
        </mxCell>
        <mxCell id="iF6_hDNO-F1vBji0Vx_p-1" value="rusty-keys daemon " style="whiteSpace=wrap;html=1;aspect=fixed;" vertex="1" parent="1">
          <mxGeometry x="90" y="300" width="80" height="80" as="geometry" />
        </mxCell>
        <mxCell id="iF6_hDNO-F1vBji0Vx_p-2" value="aws-lc-rs" style="whiteSpace=wrap;html=1;aspect=fixed;" vertex="1" parent="1">
          <mxGeometry x="220" y="400" width="80" height="80" as="geometry" />
        </mxCell>
        <mxCell id="iF6_hDNO-F1vBji0Vx_p-4" value="STD FS" style="whiteSpace=wrap;html=1;aspect=fixed;" vertex="1" parent="1">
          <mxGeometry x="190" y="10" width="80" height="80" as="geometry" />
        </mxCell>
        <mxCell id="iF6_hDNO-F1vBji0Vx_p-6" value="rusty-keys parser " style="whiteSpace=wrap;html=1;aspect=fixed;" vertex="1" parent="1">
          <mxGeometry x="190" y="160" width="80" height="80" as="geometry" />
        </mxCell>
        <mxCell id="iF6_hDNO-F1vBji0Vx_p-12" style="edgeStyle=orthogonalEdgeStyle;rounded=0;orthogonalLoop=1;jettySize=auto;html=1;exitX=1;exitY=0.25;exitDx=0;exitDy=0;entryX=0.5;entryY=1;entryDx=0;entryDy=0;startArrow=classic;startFill=1;" edge="1" parent="1" source="iF6_hDNO-F1vBji0Vx_p-8" target="iF6_hDNO-F1vBji0Vx_p-13">
          <mxGeometry relative="1" as="geometry">
            <mxPoint x="650" y="60" as="targetPoint" />
          </mxGeometry>
        </mxCell>
        <mxCell id="iF6_hDNO-F1vBji0Vx_p-15" style="edgeStyle=orthogonalEdgeStyle;rounded=0;orthogonalLoop=1;jettySize=auto;html=1;exitX=0.5;exitY=1;exitDx=0;exitDy=0;entryX=0.5;entryY=0;entryDx=0;entryDy=0;startArrow=classic;startFill=1;" edge="1" parent="1" source="iF6_hDNO-F1vBji0Vx_p-8" target="iF6_hDNO-F1vBji0Vx_p-14">
          <mxGeometry relative="1" as="geometry" />
        </mxCell>
        <mxCell id="iF6_hDNO-F1vBji0Vx_p-29" style="edgeStyle=orthogonalEdgeStyle;rounded=0;orthogonalLoop=1;jettySize=auto;html=1;exitX=1;exitY=0.25;exitDx=0;exitDy=0;entryX=0.5;entryY=1;entryDx=0;entryDy=0;" edge="1" parent="1" source="iF6_hDNO-F1vBji0Vx_p-8" target="iF6_hDNO-F1vBji0Vx_p-28">
          <mxGeometry relative="1" as="geometry" />
        </mxCell>
        <mxCell id="iF6_hDNO-F1vBji0Vx_p-8" value="rusty-keys GUI " style="whiteSpace=wrap;html=1;aspect=fixed;" vertex="1" parent="1">
          <mxGeometry x="440" y="160" width="80" height="80" as="geometry" />
        </mxCell>
        <mxCell id="iF6_hDNO-F1vBji0Vx_p-16" style="edgeStyle=orthogonalEdgeStyle;rounded=0;orthogonalLoop=1;jettySize=auto;html=1;exitX=0;exitY=0.5;exitDx=0;exitDy=0;entryX=0.5;entryY=1;entryDx=0;entryDy=0;startArrow=classic;startFill=1;" edge="1" parent="1" source="iF6_hDNO-F1vBji0Vx_p-9" target="iF6_hDNO-F1vBji0Vx_p-14">
          <mxGeometry relative="1" as="geometry" />
        </mxCell>
        <mxCell id="iF6_hDNO-F1vBji0Vx_p-9" value="&lt;div&gt;rusty-keys&amp;nbsp;&lt;/div&gt;&lt;div&gt;CLI &lt;/div&gt;" style="whiteSpace=wrap;html=1;aspect=fixed;" vertex="1" parent="1">
          <mxGeometry x="520" y="390" width="80" height="80" as="geometry" />
        </mxCell>
        <mxCell id="iF6_hDNO-F1vBji0Vx_p-13" value="GTK3-rs" style="whiteSpace=wrap;html=1;aspect=fixed;" vertex="1" parent="1">
          <mxGeometry x="480" width="80" height="80" as="geometry" />
        </mxCell>
        <mxCell id="iF6_hDNO-F1vBji0Vx_p-17" style="edgeStyle=orthogonalEdgeStyle;rounded=0;orthogonalLoop=1;jettySize=auto;html=1;exitX=0;exitY=0.5;exitDx=0;exitDy=0;entryX=1;entryY=0.5;entryDx=0;entryDy=0;startArrow=classic;startFill=1;" edge="1" parent="1" source="iF6_hDNO-F1vBji0Vx_p-14" target="iF6_hDNO-F1vBji0Vx_p-1">
          <mxGeometry relative="1" as="geometry" />
        </mxCell>
        <mxCell id="iF6_hDNO-F1vBji0Vx_p-19" value="&lt;div&gt;POSIX restricted&lt;br&gt;&lt;/div&gt;&lt;div&gt;Unix Socket &lt;br&gt;&lt;/div&gt;&lt;div&gt;Encrypted traffic&lt;br&gt;&lt;/div&gt;" style="edgeLabel;html=1;align=center;verticalAlign=middle;resizable=0;points=[];" vertex="1" connectable="0" parent="iF6_hDNO-F1vBji0Vx_p-17">
          <mxGeometry x="0.2105" relative="1" as="geometry">
            <mxPoint as="offset" />
          </mxGeometry>
        </mxCell>
        <mxCell id="iF6_hDNO-F1vBji0Vx_p-18" style="edgeStyle=orthogonalEdgeStyle;rounded=0;orthogonalLoop=1;jettySize=auto;html=1;exitX=0;exitY=0.75;exitDx=0;exitDy=0;entryX=1;entryY=0.5;entryDx=0;entryDy=0;startArrow=classic;startFill=1;" edge="1" parent="1" source="iF6_hDNO-F1vBji0Vx_p-14" target="iF6_hDNO-F1vBji0Vx_p-2">
          <mxGeometry relative="1" as="geometry" />
        </mxCell>
        <mxCell id="iF6_hDNO-F1vBji0Vx_p-14" value="&lt;div&gt;rusty-keys&amp;nbsp;&lt;/div&gt;&lt;div&gt;IPC module&lt;br&gt;&lt;/div&gt;" style="whiteSpace=wrap;html=1;aspect=fixed;" vertex="1" parent="1">
          <mxGeometry x="360" y="300" width="80" height="80" as="geometry" />
        </mxCell>
        <mxCell id="iF6_hDNO-F1vBji0Vx_p-20" value="" style="shape=cylinder3;whiteSpace=wrap;html=1;boundedLbl=1;backgroundOutline=1;size=15;" vertex="1" parent="1">
          <mxGeometry x="520" y="190" width="80" height="60" as="geometry" />
        </mxCell>
        <mxCell id="iF6_hDNO-F1vBji0Vx_p-21" value="" style="shape=cylinder3;whiteSpace=wrap;html=1;boundedLbl=1;backgroundOutline=1;size=15;" vertex="1" parent="1">
          <mxGeometry x="10" y="320" width="80" height="60" as="geometry" />
        </mxCell>
        <mxCell id="iF6_hDNO-F1vBji0Vx_p-22" value="" style="shape=cylinder3;whiteSpace=wrap;html=1;boundedLbl=1;backgroundOutline=1;size=15;" vertex="1" parent="1">
          <mxGeometry x="600" y="420" width="80" height="60" as="geometry" />
        </mxCell>
        <mxCell id="iF6_hDNO-F1vBji0Vx_p-26" style="edgeStyle=orthogonalEdgeStyle;rounded=0;orthogonalLoop=1;jettySize=auto;html=1;exitX=0.5;exitY=1;exitDx=0;exitDy=0;entryX=0.25;entryY=0;entryDx=0;entryDy=0;" edge="1" parent="1" source="iF6_hDNO-F1vBji0Vx_p-24" target="iF6_hDNO-F1vBji0Vx_p-1">
          <mxGeometry relative="1" as="geometry" />
        </mxCell>
        <mxCell id="iF6_hDNO-F1vBji0Vx_p-24" value="D Bus" style="whiteSpace=wrap;html=1;aspect=fixed;" vertex="1" parent="1">
          <mxGeometry x="10" y="160" width="80" height="80" as="geometry" />
        </mxCell>
        <mxCell id="iF6_hDNO-F1vBji0Vx_p-25" value="lib secret bindings" style="whiteSpace=wrap;html=1;aspect=fixed;" vertex="1" parent="1">
          <mxGeometry x="40" y="530" width="80" height="80" as="geometry" />
        </mxCell>
        <mxCell id="iF6_hDNO-F1vBji0Vx_p-28" value="Iced-rs" style="whiteSpace=wrap;html=1;aspect=fixed;" vertex="1" parent="1">
          <mxGeometry x="610" width="80" height="80" as="geometry" />
        </mxCell>
      </root>
    </mxGraphModel>
  </diagram>
</mxfile>
